<?xml version="1.0" encoding="utf-8"?>
<!-- Generator: Adobe Illustrator 24.3.0, SVG Export Plug-In . SVG Version: 6.00 Build 0)  -->
<svg version="1.1" id="Layer_1" xmlns="http://www.w3.org/2000/svg" xmlns:xlink="http://www.w3.org/1999/xlink" x="0px" y="0px"
	 viewBox="0 0 275.9 93.8" style="enable-background:new 0 0 275.9 93.8;" xml:space="preserve">
<path d="M29.4,29.4h22.1l-2,6.3H36.9v7.6h10.5v6.3H36.9v8.4h14.7v6.3H29.4V29.4z"/>
<path d="M67.6,58.5c3.2,0,5.3-1.2,5.3-3.6c0-2-1.4-2.9-3.2-3.7l-5.9-2.7c-3.9-1.9-7.2-4.1-7.2-9.2c0-6.3,5.3-10.4,12-10.4
	c4.1,0,7.7,1.7,9.6,3.4V40c-2.7-2.7-6.3-4.8-9.9-4.8c-2.5,0-4.4,1.2-4.4,3.3c0,1.5,1,2.4,2.6,3.1l5.4,2.4c5.4,2.4,8.2,4.8,8.2,9.9
	c0,6.8-5.6,10.9-12.7,10.9c-4.6,0-8.5-1.7-10.8-3.5v-7.7C59.7,56.3,63.5,58.5,67.6,58.5z"/>
<path d="M101.3,35.7v28.7h-7.7V35.7H82.7v-6.3h29.4v6.3H101.3z"/>
<path d="M131.3,58.2c4,0,6.6-2.6,6.6-7.8V29.4h7.7v21.1c0,9.2-6.2,14.5-14.3,14.5S117,59.7,117,50.5V29.4h7.6v21.1
	C124.6,55.6,127.3,58.2,131.3,58.2z"/>
<path d="M195.1,64.4h-7.6v-35h10.7c8,0,13.6,4.2,13.6,11.2c0,4.5-2.4,7.8-6.2,9.5l10.2,14.4h-8.9l-9.1-13h-2.6V64.4z M195.1,45.4h3
	c3.6,0,5.9-1.8,5.9-4.8c0-3.1-2.3-4.9-5.9-4.9h-3V45.4z"/>
<path d="M225.7,64.4V49l-13.1-19.6h8.6l8.3,12.5l8.4-12.5h8.6L233.4,49v15.4H225.7z"/>
<path d="M164.8,27.9l-18.4,36.5h14.8v-6.8h-4.1l7.7-15.2l7.6,15.2h-4.1v6.8h14.8L164.8,27.9z"/>
</svg>
