<svg version="1.1" xmlns="http://www.w3.org/2000/svg" viewBox="0 0 3025 640">
<style type="text/css">
	.st0{fill:url(#SVGID_1_);}
	.st1{fill:#181A25;}
</style>
<linearGradient id="SVGID_1_" gradientUnits="userSpaceOnUse" x1="13.3501" y1="629.1301" x2="642.5001" y2="-9.962368e-03" gradientTransform="matrix(1 0 0 -1 0 642)">
	<stop  offset="8.000000e-02" style="stop-color:#FF5274"/>
	<stop  offset="0.91" style="stop-color:#6446FA"/>
</linearGradient>
<path class="st0" d="M524.9,369.6c-30.6,0-58.7,11-79.5,33c-33-17.1-69.7-30.6-108.9-40.4c4.9-13.5,18.4-55,24.5-73.4
	c20.2,3.7,40.6,6.2,61.2,7.3c77.1,6.1,135.8-8.6,173.7-42.8c36.7-34.3,45.3-80.8,45.3-112.6c0-77-62.4-140.7-140.7-140.7
	c-4.9,0-48.9-3.7-89.3,28.1c-25.7,20.8-58.7,106.4-83.2,177.4c-34.4-9.1-67.4-23.1-97.9-41.6v-7.3C230,94.3,178.6,43,116.2,43
	S2.5,94.3,2.5,156.7s51.4,113.8,113.8,113.8c30.6,0,58.7-11,79.5-33c33,17.1,69.7,30.6,108.9,40.4c-4.9,13.5-18.4,55.1-24.5,73.4
	c-20.2-3.7-40.6-6.2-61.2-7.4c-77.1-6.1-135.8,8.6-173.7,42.8C8.6,421,0,467.5,0,499.3C0,576.4,62.4,640,140.7,640h7.3
	c29.7-0.3,58.4-10.2,82-28.1c25.7-20.8,58.7-106.4,83.2-177.4c34.4,9.1,67.4,23.1,97.9,41.6v7.3c0,62.4,51.4,113.8,113.8,113.8
	s113.8-51.4,113.8-113.8c0.1-62.7-50.6-113.7-113.3-113.8C525.2,369.6,525,369.6,524.9,369.6z M572.6,189.8
	c-24.5,25.7-75.9,35.5-154.2,30.6c-11-1.2-22-1.2-33-3.7c23.3-64.8,44.1-115,62.4-150.5c20.8-35.5,44-51.4,66.1-47.7
	c41.6,8.6,71,83.2,74.6,111.3C590.9,155.5,586,175.1,572.6,189.8z M66.1,449.1c19.6-20.8,58.7-31.8,116.2-31.8
	c12.2,0,24.5,0,37.9,1.2c11,1.2,22,1.2,33,3.7c-23.2,64.8-44,115-62.4,150.5c-22,35.5-44,51.4-66.1,47.7
	c-41.6-8.6-71-83.2-74.6-111.3C47.7,483.4,52.6,463.8,66.1,449.1L66.1,449.1z"/>
<path class="st1" d="M953.6,140.2c0-67.1,32.7-100,99.2-100h85.9v84.2h-55.7c-32.7,0-36.3,20.7-36.3,39v41.5h92v83h-92v303.8h-93.2
	V287.8h-69v-84.2h69L953.6,140.2z M1304.5,591.6V204.9h-96.8l3.6,387.9h93.2V591.6z M2199.8,591.6V204.9H2103l3.6,387.9h93.2
	L2199.8,591.6z M1591.2,365.9l-93.2-20.7c-30.2-7.3-36.3-23.2-36.3-36.6c1.2-23.2,21.8-37.8,54.4-37.8c30.2,0,52,14.6,59.3,39h96.8
	c-8.5-74.4-58.1-111-153.7-111c-35.1,0-151.2,8.5-151.2,109.8c0,91.5,73.8,115.9,96.8,120.8l85.9,19.5c18.1,3.7,41.1,12.2,41.1,37.8
	c0,24.4-20.6,37.8-58.1,37.8c-35.1,0-73.8-14.6-81.1-46.4h-94.4c8.5,109.8,134.3,118.3,173,118.3c104.1,0,154.9-36.6,154.9-109.8
	C1685.6,405,1634.8,375.7,1591.2,365.9L1591.2,365.9z M1955.4,365.9l-93.2-20.7c-30.2-7.3-36.2-23.2-36.2-36.6
	c1.2-23.2,21.8-37.8,54.4-37.8c30.2,0,52,14.6,59.3,39h96.8c-8.5-74.4-58.1-111-153.7-111c-35.1,0-151.2,8.5-151.2,109.8
	c0,91.5,73.8,115.9,96.8,120.8l85.9,19.5c18.1,3.7,41.1,12.2,41.1,37.8c0,24.4-20.6,37.8-58.1,37.8c-35.1,0-73.8-14.6-81.1-46.4
	h-94.4c8.5,109.8,134.3,118.3,173,118.3c104.1,0,154.9-36.6,154.9-109.8C2049.8,405,1999,375.7,1955.4,365.9L1955.4,365.9z
	 M2867.7,196.4c-60.5,0-87.1,24.4-96.8,39l-10.9,15.9v-46.4h-93.2v387.9h93.2V356.2c0-63.4,46-86.6,84.7-86.6s84.7,23.2,84.7,86.6
	v236.7h93.2V351.3C3021.3,237.8,2941.5,196.4,2867.7,196.4L2867.7,196.4z M2611.2,369.6v53.7c0,111-62.9,173.2-177.9,173.2
	s-177.9-61-177.9-173.2v-53.7c0-111,62.9-173.2,177.9-173.2S2611.2,258.6,2611.2,369.6z M2512,356.2c0-48.8-27.8-85.4-78.6-85.4
	s-78.6,36.6-78.6,85.4v80.5c0,48.8,27.8,89.1,78.6,89.1s78.6-40.3,78.6-89V356.2z M1304.5,40.2h-96.8v84.2h96.8V40.2z M2199.8,40.2
	H2103v84.2h96.8L2199.8,40.2z"/>
</svg>
