<svg xmlns="http://www.w3.org/2000/svg" viewBox="0 0 80 80">
<style type="text/css">
	.fill { fill: #36769d; }
</style>
	<g>
		<path class="fill" d="M76.6,40.4c-0.9,48.9-73.4,49.1-73.8-1C5-8.9,75.9-7.7,76.6,40.4z M47.1,34.8c0.4-0.4,1.2-1.6-0.2-2.3
			c-4.9,0.1-7.6,3.2-10.7-0.9c-2.3-2.9-7.7-5.2-5.8-9.5c0.2-0.6,0.2-1.6-0.3-2.1c-0.4-0.3-1.7,0-2.2,0.4c-2.9,2.7-5.6,5.5-8.3,8.3
			c-0.4,0.4-0.6,1.4-0.4,1.8c0.2,0.4,1.4,0.8,1.8,0.6c4.4-2.4,7.1,3.9,10.2,6c2.1,1.8,2.5,3.9,1.5,6.5c-0.7,1.4-1.1,6.1,1.6,4
			c1.1-0.9,2.1-1.9,3-3c1.3-1.4,2.3-1.6,3.7-0.1c4.1,4.3,8.1,8.8,13.5,11.6c0.3-0.3,0.5-0.5,0.8-0.8C52.9,50.4,49,46.7,45.1,43
			c-3.5-3.4-3.4-2.8,0.1-6.3C45.9,36.1,46.4,35.3,47.1,34.8z"/>
	</g>
</svg>
