<svg version="1.1" xmlns="http://www.w3.org/2000/svg" viewBox="0 0 150 150">
<style type="text/css">
	.st0{fill:#3C3D3E;}
	.st1{fill:#0894EA;}
</style>
<g>
	<g>
		<path class="st0" d="M132.7,109.1c0,0.6-0.4,1.2-0.9,1.5c-6.2,3.4-12.4,6.6-18.5,10.1c-12.5,7.1-24.9,14.2-37.3,21.5
			c-2.3,1.3-3.9,1.3-6.2,0c-17.7-10.3-35.4-20.5-53.2-30.6c-2.5-1.4-3.3-3.1-3.2-5.8c0.1-20.4,0.1-40.7,0-61.1
			c0-3.8,1.9-4.4,6.9-7.4c14.2-8.7,28.2-15.6,44.1-24.9c6.4-3.7,7.9-6.3,11.7-4.1c17.2,10.1,34.6,20,51.9,29.9
			c0.7,0.4,1.5,0.8,2.2,1.2c1.6,0.8,2.6,2.4,2.6,4.1V109.1z M22.4,75.4c0,8.4-0.2,16.9,0.1,25.3c0.1,1.9,1.4,4.4,2.9,5.4
			c14.7,8.8,29.6,17.4,44.6,25.8c1.6,0.9,4.5,0.8,6.1-0.1c15-8.4,29.8-17,44.6-25.8c1.5-0.9,2.9-3.2,2.9-4.9
			c0.2-17.2,0.2-34.5,0-51.7c0-1.7-1.4-4-2.8-4.9c-14.9-8.9-29.9-17.6-45-26.1c-1.4-0.8-4.1-0.8-5.6,0c-15,8.4-29.7,17.2-44.7,25.7
			c-2.3,1.3-3.2,2.7-3.2,5.4C22.5,58.2,22.4,66.8,22.4,75.4z"/>
		<path class="st1" d="M102.8,49.9c3.1,0,5.7,0,8.5,0c0,16.9,0,33.7,0,50.8c-2.8,0-5.5,0-8.5,0C102.8,83.8,102.8,67,102.8,49.9z"/>
		<path class="st1" d="M75,28c1.6,2.7,2.9,4.8,4.5,7.6c-14.7,8.5-29.3,16.9-44.2,25.6c-1.5-2.7-2.8-4.9-4.4-7.7
			C45.6,45,60.1,36.6,75,28z"/>
		<path class="st1" d="M75,122.6c-15-8.7-29.4-17-44.2-25.5c1.5-2.6,2.8-4.8,4.4-7.7c14.7,8.5,29.2,16.8,44.2,25.4
			C78,117.5,76.7,119.8,75,122.6z"/>
	</g>
</g>
</svg>
