<?xml version="1.0" encoding="utf-8"?>
<!-- Generator: Adobe Illustrator 25.4.1, SVG Export Plug-In . SVG Version: 6.00 Build 0)  -->
<svg version="1.1" id="Layer_1" xmlns="http://www.w3.org/2000/svg" xmlns:xlink="http://www.w3.org/1999/xlink" x="0px" y="0px"
	 width="100px" height="100px" viewBox="0 0 100 100" style="enable-background:new 0 0 100 100;" xml:space="preserve">
<style type="text/css">
	.st0{fill:#222222;}
	.st1{fill:#5FBE7B;}
</style>
<g>
	<path class="st0" d="M21.6,48.7h1.2V57h2.1v-8.3h4V57H31V46.8h-6.1v-1.9h4.7V43h-6.8v3.8h-1.2V48.7z M32.4,57h4.4V55h-2.3V43h-2.1
		V57z M36.6,51.8c0,3,2.3,5.3,5.2,5.3c2,0,3.2-0.8,4-1.6c0.5-0.5,0.8-1,1.1-1.7h-2.2c-0.2,0.3-0.4,0.5-0.7,0.7
		c-0.5,0.4-1.2,0.7-2.2,0.7c-1.5,0-2.8-1-3.1-2.7H47v-0.7c0-3-2.3-5.3-5.2-5.3C38.9,46.5,36.6,48.9,36.6,51.8z M38.8,50.8
		c0.3-1.5,1.6-2.4,3-2.4c1.8,0,2.8,1.2,3,2.4H38.8z M47.4,55.8c0,0.8,0.6,1.4,1.4,1.4s1.4-0.6,1.4-1.4c0-0.8-0.6-1.4-1.4-1.4
		S47.4,55,47.4,55.8z M50.2,46.8L53,57h4.5l2.8-10.2h-2.2L55.9,55h-1.3l-2.2-8.3H50.2z M60.5,44c0,0.7,0.5,1.2,1.2,1.2
		c0.7,0,1.3-0.5,1.3-1.2c0-0.7-0.6-1.3-1.3-1.3C61,42.8,60.5,43.3,60.5,44z M60.7,57h2.1V46.8h-2.1V57z M63.6,51.8
		c0,3.2,2.1,5.3,4.8,5.3c1,0,1.8-0.4,2.4-0.7c0.3-0.2,0.6-0.5,0.8-0.8h0.1V57h2.1V43h-2.1V48h-0.1c-0.2-0.3-0.5-0.5-0.8-0.7
		c-0.5-0.4-1.3-0.8-2.4-0.8C65.7,46.5,63.6,48.7,63.6,51.8z M65.8,51.8c0-2.2,1.2-3.4,3-3.4c1.7,0,2.9,1.2,2.9,3.4
		c0,2.2-1.2,3.4-2.9,3.4C67,55.2,65.8,54.1,65.8,51.8z M74.6,51.8c0,3,2.3,5.3,5.2,5.3c2,0,3.2-0.8,4-1.6c0.5-0.5,0.8-1,1.1-1.7
		h-2.2c-0.2,0.3-0.4,0.5-0.7,0.7c-0.5,0.4-1.2,0.7-2.2,0.7c-1.5,0-2.8-1-3.1-2.7H85v-0.7c0-3-2.3-5.3-5.2-5.3
		C76.9,46.5,74.6,48.9,74.6,51.8z M76.8,50.8c0.3-1.5,1.6-2.4,3-2.4c1.8,0,2.8,1.2,3,2.4H76.8z M85.2,51.7c-0.1,3.1,2.3,5.5,5.4,5.4
		c2.8-0.1,5.1-2.4,5.2-5.2c0.1-3.1-2.3-5.5-5.4-5.4C87.6,46.6,85.3,48.9,85.2,51.7z M87.4,51.8c0-2.1,1.3-3.4,3.1-3.4
		s3.1,1.3,3.1,3.4c0,2.1-1.3,3.4-3.1,3.4S87.4,53.9,87.4,51.8z"/>
	<circle class="st1" cx="9.7" cy="50.5" r="5.5"/>
</g>
</svg>
