<svg width="256" height="256" viewBox="0 0 256 256" fill="none" xmlns="http://www.w3.org/2000/svg">
<path d="M130 112C128.343 112 127 113.343 127 115V120H136L134 126H127V150H121V115C121 110.029 125.029 106 130 106H137L135 112H130Z" fill="black"/>
<path fill-rule="evenodd" clip-rule="evenodd" d="M73 108H88C94.6274 108 100 113.373 100 120C100 123.352 98.6256 126.383 96.4097 128.56C99.2048 130.757 101 134.169 101 138C101 144.627 95.6274 150 89 150H73V108ZM79 114H88C91.3137 114 94 116.686 94 120C94 123.314 91.3137 126 88 126H79V114ZM79 132V144H89C92.3137 144 95 141.314 95 138C95 134.686 92.3137 132 89 132H79Z" fill="black"/>
<path d="M113 108H107V114H113V108Z" fill="black"/>
<path d="M113 120H107V150H113V120Z" fill="black"/>
<path d="M141 120V150H147V126H155L157 120H141Z" fill="black"/>
<path fill-rule="evenodd" clip-rule="evenodd" d="M185 134.75C185 143.172 180.179 150 171.5 150C162.821 150 158 143.172 158 134.75C158 126.328 162.821 119.5 171.5 119.5C180.179 119.5 185 126.328 185 134.75ZM179 134.75C179 137.872 178.104 140.235 176.887 141.702C175.775 143.042 174.114 144 171.5 144C168.886 144 167.225 143.042 166.113 141.702C164.896 140.235 164 137.872 164 134.75C164 131.628 164.896 129.265 166.113 127.798C167.225 126.458 168.886 125.5 171.5 125.5C174.114 125.5 175.775 126.458 176.887 127.798C178.104 129.265 179 131.628 179 134.75Z" fill="black"/>
<path d="M207.005 129.122C206.973 128.698 206.855 128.284 206.659 127.905C206.445 127.446 206.164 127.021 205.827 126.644C205.119 125.868 204.214 125.301 203.207 125.003C202.67 124.845 202.116 124.747 201.557 124.711C200.943 124.675 200.328 124.689 199.716 124.755C198.664 124.833 197.65 125.189 196.78 125.787C196.485 126.015 196.238 126.299 196.055 126.624C195.901 126.904 195.803 127.212 195.768 127.53C195.77 127.561 195.77 127.592 195.768 127.623V127.739C195.762 127.832 195.762 127.925 195.768 128.017C195.781 128.167 195.814 128.314 195.865 128.455C195.983 128.752 196.164 129.02 196.396 129.239C197.237 129.969 198.215 130.524 199.273 130.871C199.882 131.09 200.525 131.28 201.187 131.455L201.674 131.577L202.209 131.703C202.594 131.786 202.978 131.874 203.368 131.971C204.142 132.161 204.926 132.375 205.734 132.633C206.588 132.891 207.42 133.217 208.222 133.607C209.165 134.066 210.029 134.675 210.778 135.409C211.626 136.255 212.253 137.297 212.604 138.442C212.773 138.978 212.887 139.53 212.945 140.088C213.007 140.633 213.017 141.183 212.974 141.729C212.874 142.877 212.529 143.989 211.961 144.992C211.415 145.949 210.693 146.795 209.834 147.485C209.03 148.122 208.136 148.636 207.18 149.009C205.465 149.643 203.653 149.972 201.825 149.983C199.987 150.073 198.148 149.808 196.41 149.204C194.554 148.532 192.9 147.398 191.605 145.907C190.966 145.164 190.418 144.346 189.974 143.473C189.521 142.558 189.194 141.587 189 140.585L194.614 139.704C194.671 140.181 194.799 140.647 194.994 141.087C195.3 141.802 195.749 142.448 196.314 142.984C196.878 143.521 197.545 143.937 198.275 144.208C199.367 144.6 200.525 144.774 201.683 144.719C202.854 144.715 204.013 144.479 205.091 144.023C205.92 143.696 206.609 143.089 207.039 142.309C207.201 141.995 207.298 141.652 207.326 141.301C207.338 141.101 207.338 140.901 207.326 140.702C207.309 140.514 207.275 140.328 207.224 140.147C207.139 139.849 206.986 139.576 206.776 139.348C206.462 139.022 206.097 138.749 205.695 138.54C204.548 137.955 203.333 137.513 202.078 137.225L201.05 136.972L200.486 136.845L199.896 136.709C199.103 136.519 198.304 136.295 197.496 136.022C196.654 135.759 195.832 135.433 195.037 135.048C194.136 134.606 193.3 134.041 192.554 133.369C191.661 132.567 190.974 131.564 190.548 130.442C190.338 129.88 190.198 129.295 190.13 128.699C190.094 128.419 190.074 128.138 190.071 127.856V127.408C190.071 127.243 190.071 127.092 190.11 126.921C190.243 125.749 190.652 124.624 191.303 123.639C191.926 122.695 192.741 121.893 193.694 121.283C195.366 120.269 197.262 119.684 199.215 119.578C200.099 119.497 200.987 119.479 201.873 119.525C202.811 119.579 203.739 119.734 204.644 119.987C206.544 120.503 208.283 121.491 209.697 122.86C210.411 123.555 211.034 124.337 211.552 125.188C212.116 126.109 212.525 127.115 212.765 128.168L207.005 129.122Z" fill="black"/>
<path d="M218 141V114H224V120H231V126H224V141C224 142.657 225.343 144 227 144H231V150H227C222.029 150 218 145.971 218 141Z" fill="black"/>
<path d="M45 150H25L55 120H65L45 150Z" fill="url(#paint0_linear)"/>
<defs>
<linearGradient id="paint0_linear" x1="45" y1="120" x2="45" y2="150" gradientUnits="userSpaceOnUse">
<stop stop-color="#12D5D5"/>
<stop offset="0.201333" stop-color="#0BB0F8"/>
<stop offset="0.403244" stop-color="#4584F5"/>
<stop offset="0.602076" stop-color="#AC57C0"/>
<stop offset="0.801867" stop-color="#E65659"/>
<stop offset="1" stop-color="#FFBF12"/>
</linearGradient>
</defs>
</svg>
