<svg version="1.1" xmlns="http://www.w3.org/2000/svg" viewBox="0 0 120 120">
<style type="text/css">
	.st0{fill-rule:evenodd;clip-rule:evenodd;fill:#B2B1B6;}
	.st1{fill-rule:evenodd;clip-rule:evenodd;fill:#848388;}
	.st2{fill-rule:evenodd;clip-rule:evenodd;fill:#0D1031;}
</style>
<g>
	<path class="st0" d="M30.4,89.4L60,101.6l29.6-12.2l12.2-29.5L89.6,30.4L60,18.2L30.4,30.4L18.2,59.9L30.4,89.4z M60,103.8L28.9,91
		L16,59.9l12.9-31.1L60,16l31.1,12.9L104,59.9L91.1,91L60,103.8z"/>
	<path class="st0" d="M41.5,59.9L60,85.2l18.5-25.3L60,34.6L41.5,59.9z M60,88.6L39,59.9l21-28.7l21,28.7L60,88.6z"/>
	<path class="st0" d="M60,85.9c0,0,0.1,0,0.1,0L88.9,89L78.8,60.2c-0.1-0.2-0.1-0.5,0-0.7l10-28.6l-28.7,4c-0.1,0-0.2,0-0.3,0
		l-28.7-4l10,28.6c0.1,0.2,0.1,0.5,0,0.7L31.1,89l28.7-3.2C59.9,85.9,60,85.9,60,85.9z M90.3,91.2c0,0-0.1,0-0.1,0L60,87.9
		l-30.2,3.4c-0.3,0-0.7-0.1-0.9-0.4c-0.2-0.3-0.3-0.6-0.2-1l10.5-30L28.7,30c-0.1-0.3-0.1-0.7,0.2-1c0.2-0.3,0.6-0.4,0.9-0.4
		L60,32.8l30.2-4.2c0.4,0,0.7,0.1,0.9,0.4c0.2,0.3,0.3,0.6,0.2,1L80.8,59.8l10.5,30c0.1,0.3,0.1,0.7-0.2,1
		C90.9,91.1,90.6,91.2,90.3,91.2z"/>
	<path class="st1" d="M59,33.9h2V17.1h-2V33.9z"/>
	<path class="st1" d="M59,102.7h2V86.9h-2V102.7z"/>
	<path class="st0" d="M102.9,60.9l-23.2,0l0-2l23.2,0L102.9,60.9z"/>
	<path class="st0" d="M17.1,60.9l0-2l23.2,0l0,2L17.1,60.9z"/>
	<path class="st2" d="M93.6,26.6c-1.8-1.8-4.7-1.8-6.5,0c-1.8,1.8-1.8,4.7,0,6.5c1.8,1.8,4.7,1.8,6.5,0
		C95.4,31.3,95.4,28.4,93.6,26.6z"/>
	<path class="st2" d="M63.3,30.6c-1.8-1.8-4.7-1.8-6.5,0c-1.8,1.8-1.8,4.7,0,6.5c1.8,1.8,4.7,1.8,6.5,0
		C65.1,35.3,65.1,32.4,63.3,30.6z"/>
	<path class="st2" d="M83,56.6c-1.8-1.8-4.7-1.8-6.5,0c-1.8,1.8-1.8,4.7,0,6.5c1.8,1.8,4.7,1.8,6.5,0C84.8,61.3,84.8,58.4,83,56.6z"
		/>
	<path class="st2" d="M43.4,56.7c-1.8-1.8-4.7-1.8-6.5,0c-1.8,1.8-1.8,4.7,0,6.5c1.8,1.8,4.7,1.8,6.5,0
		C45.2,61.4,45.2,58.5,43.4,56.7z"/>
	<path class="st2" d="M63.2,82.7c-1.8-1.8-4.7-1.8-6.5,0c-1.8,1.8-1.8,4.7,0,6.5c1.8,1.8,4.7,1.8,6.5,0C65,87.4,65,84.5,63.2,82.7z"
		/>
	<path class="st2" d="M33,87.1c-1.8-1.8-4.7-1.8-6.5,0c-1.8,1.8-1.8,4.7,0,6.5c1.8,1.8,4.7,1.8,6.5,0C34.8,91.8,34.8,88.9,33,87.1z"
		/>
	<path class="st2" d="M93.6,93.7c1.8-1.8,1.8-4.7,0-6.5c-1.8-1.8-4.7-1.8-6.5,0c-1.8,1.8-1.8,4.7,0,6.5
		C88.9,95.5,91.8,95.5,93.6,93.7z"/>
	<path class="st2" d="M32.9,33.1c1.8-1.8,1.8-4.7,0-6.5c-1.8-1.8-4.7-1.8-6.5,0c-1.8,1.8-1.8,4.7,0,6.5
		C28.2,34.9,31.1,34.9,32.9,33.1z"/>
	<path class="st2" d="M107.5,60.1c0-2.5-2.1-4.6-4.6-4.6c-2.5,0-4.6,2.1-4.6,4.6c0,2.5,2.1,4.6,4.6,4.6
		C105.4,64.7,107.5,62.7,107.5,60.1z"/>
	<path class="st2" d="M21.7,60.1c0-2.5-2.1-4.6-4.6-4.6c-2.5,0-4.6,2.1-4.6,4.6c0,2.5,2.1,4.6,4.6,4.6
		C19.6,64.7,21.7,62.7,21.7,60.1z"/>
	<path class="st2" d="M60,107.6c2.5,0,4.6-2.1,4.6-4.6c0-2.5-2.1-4.6-4.6-4.6c-2.5,0-4.6,2.1-4.6,4.6
		C55.4,105.5,57.5,107.6,60,107.6z"/>
	<path class="st2" d="M60,21.9c2.5,0,4.6-2.1,4.6-4.6s-2.1-4.6-4.6-4.6c-2.5,0-4.6,2.1-4.6,4.6S57.5,21.9,60,21.9z"/>
</g>
</svg>
