<svg width="40" height="40" fill="none" xmlns="http://www.w3.org/2000/svg"><path fill="#2E90FA" d="M20.875 13.906l4.461-2.576v5.152l-4.461 2.576zm5.291-2.925l4.462-2.576v5.152l-4.462 2.576z"/><path fill="#F04438" d="M26.166 16.9l4.462-2.577v5.152l-4.462 2.576z"/><path fill="#2E90FA" d="M31.457 7.78l4.462-2.577v5.152l-4.461 2.576zm-10.994 5.5L16 10.702l4.462-2.576 4.462 2.576zm-5.292-3.064L10.71 7.64l4.461-2.576 4.462 2.576zM9.88 7.152L5.418 4.576 9.88 2l4.462 2.576zm15.874 3.064L21.292 7.64l4.462-2.576 4.462 2.576zm5.291-3.064l-4.461-2.576L31.045 2l4.462 2.576zm-11 6.754l-4.462-2.576v5.152l4.462 2.576zm-5.292-3.063l-4.461-2.576v5.152l4.461 2.576zm0 5.987l-4.461-2.576v5.152l4.461 2.576zM9.462 7.78L5 5.202v5.152l4.462 2.576zm11.413 12.114l4.461-2.576v5.152l-4.461 2.576zm-.83 0l-4.462-2.576v5.152l4.462 2.576zm.83 5.986l4.461-2.575v5.152l-4.461 2.576zm-.83 0l-4.462-2.575v5.152l4.462 2.576zM8.378 35.907h.697v.697h-.697v-.697zm0 1.049h.697v.696h-.697v-.696zm.938.348a.348.348 0 01.696 0 .348.348 0 01-.696 0zm0-1.397h.696v.697h-.696v-.697zm-.938 2.099h.697v.696h-.697v-.696zm6.09-1.751a.348.348 0 01.696 0 .348.348 0 11-.696 0zm0 .701h.697v.696h-.697v-.696zm0 1.05h.697v.696h-.697v-.696zm5.152-2.099h.697v.697h-.696v-.697zm0 1.049h.697v.696h-.696v-.696zm0 1.05h.697v.696h-.696v-.696zm.982.348a.348.348 0 01.696 0 .348.348 0 01-.696 0zm5.153-2.447h.696v.697h-.696v-.697zm0 1.049h.696v.696h-.696v-.696zm.937.348a.348.348 0 11.696 0 .348.348 0 01-.696 0zm0-1.397h.697v.697h-.697v-.697zm-.937 2.099h.696v.696h-.696v-.696zm6.089-1.751a.348.348 0 01.696 0 .348.348 0 01-.696 0zm0 .701h.697v.696h-.697v-.696zm0 1.05h.697v.696h-.697v-.696z"/></svg>