<svg xmlns="http://www.w3.org/2000/svg" xmlns:xlink="http://www.w3.org/1999/xlink" width="500" zoomAndPan="magnify" viewBox="0 0 375 374.999991" height="500" preserveAspectRatio="xMidYMid meet" version="1.0"><path fill="#000000" d="M 68.878906 203.859375 L 72.835938 203.859375 C 81.773438 203.859375 89.050781 196.5 89.050781 187.558594 C 89.050781 178.617188 81.773438 171.257812 72.835938 171.257812 L 68.878906 171.257812 Z M 72.835938 155.90625 C 90.316406 155.90625 104.476562 170.070312 104.476562 187.558594 C 104.476562 205.046875 90.316406 219.210938 72.835938 219.210938 L 53.375 219.210938 L 53.375 155.90625 Z M 72.835938 155.90625 " fill-opacity="1" fill-rule="nonzero"/><path fill="#000000" d="M 167.605469 211.613281 C 161.433594 217.785156 152.96875 221.585938 143.554688 221.585938 C 124.804688 221.585938 109.539062 206.3125 109.539062 187.558594 C 109.539062 168.804688 124.804688 153.53125 143.554688 153.53125 C 152.96875 153.53125 161.433594 157.332031 167.605469 163.503906 L 156.84375 174.265625 C 153.445312 170.941406 148.777344 168.804688 143.554688 168.804688 C 133.191406 168.804688 124.804688 177.191406 124.804688 187.558594 C 124.804688 197.925781 133.191406 206.3125 143.554688 206.3125 C 148.777344 206.3125 153.445312 204.175781 156.84375 200.851562 Z M 167.605469 211.613281 " fill-opacity="1" fill-rule="nonzero"/><path fill="#000000" d="M 260.953125 155.90625 L 276.222656 155.90625 L 276.222656 221.585938 L 237.21875 187.402344 L 237.21875 219.210938 L 221.949219 219.210938 L 221.949219 153.53125 L 260.953125 187.71875 Z M 260.953125 155.90625 " fill-opacity="1" fill-rule="nonzero"/><path fill="#000000" d="M 310.234375 171.257812 L 310.234375 219.210938 L 294.808594 219.210938 L 294.808594 171.257812 L 283.417969 171.257812 L 283.417969 155.90625 L 321.625 155.90625 L 321.625 171.257812 Z M 310.234375 171.257812 " fill-opacity="1" fill-rule="nonzero"/><path fill="#000000" d="M 206.996094 158.417969 L 206.996094 170.109375 L 174.9375 171.074219 L 174.9375 161.421875 Z M 206.996094 158.417969 " fill-opacity="1" fill-rule="nonzero"/><path fill="#000000" d="M 206.996094 183.621094 L 174.9375 184.480469 L 174.9375 193.703125 L 206.996094 194.777344 Z M 206.996094 183.621094 " fill-opacity="1" fill-rule="nonzero"/><path fill="#000000" d="M 206.996094 219.765625 L 206.996094 208.074219 L 174.9375 207.109375 L 174.9375 216.761719 Z M 206.996094 219.765625 " fill-opacity="1" fill-rule="nonzero"/><path fill="#000000" d="M 211.382812 163.601562 C 211.382812 165.378906 212.824219 166.820312 214.597656 166.820312 C 216.375 166.820312 217.816406 165.378906 217.816406 163.601562 C 217.816406 161.828125 216.375 160.386719 214.597656 160.386719 C 212.824219 160.386719 211.382812 161.828125 211.382812 163.601562 " fill-opacity="1" fill-rule="nonzero"/><path fill="#000000" d="M 211.382812 189.199219 C 211.382812 190.976562 212.824219 192.417969 214.597656 192.417969 C 216.375 192.417969 217.816406 190.976562 217.816406 189.199219 C 217.816406 187.421875 216.375 185.980469 214.597656 185.980469 C 212.824219 185.980469 211.382812 187.421875 211.382812 189.199219 " fill-opacity="1" fill-rule="nonzero"/><path fill="#000000" d="M 211.382812 213.570312 C 211.382812 215.347656 212.824219 216.785156 214.597656 216.785156 C 216.375 216.785156 217.816406 215.347656 217.816406 213.570312 C 217.816406 211.792969 216.375 210.351562 214.597656 210.351562 C 212.824219 210.351562 211.382812 211.792969 211.382812 213.570312 " fill-opacity="1" fill-rule="nonzero"/></svg>