<svg xmlns="http://www.w3.org/2000/svg" viewBox="0 0 200 200">
<style type="text/css">
	.fill { fill: #1A243F; }
</style>
<g>
	<path class="fill" d="M166.5,102.7c-9.6,0-19.1,0-28.7,0c-1.1,0-1.1,0-1.1-1.1c0-7.1,0-14.2,0-21.2c0-1.1,0.1-1.2,1.2-1.2
		c19.1,0,38.2,0,57.3,0c1,0,1.2,0.1,1.2,1.2c0,7,0,14.1,0,21.1c0,1.1-0.1,1.2-1.2,1.2C185.6,102.7,176,102.7,166.5,102.7z
		 M166.6,84.8c-7.7,0-15.5,0-23.2,0c-1,0-1,0-1,1c0,3.4,0,6.8,0,10.2c0,0.9,0.1,1,1,1c15.5,0,31,0,46.4,0c0.9,0,1-0.1,1-1
		c0-3.4,0-6.8,0-10.2c0-1.1,0-1.1-1.1-1.1C181.9,84.8,174.3,84.8,166.6,84.8z"/>
	<path class="fill" d="M33.2,102.7c-9.5,0-19,0-28.4,0c-1.1,0-1.1,0-1.1-1c0-7,0-13.9,0-20.9c0-1.2,0.3-1.6,1.6-1.6
		c18.8,0,37.6,0,56.4,0c1.3,0,1.6,0.3,1.6,1.6c0,6.8,0,13.5,0,20.3c0,1.3-0.3,1.6-1.6,1.6C52.2,102.7,42.7,102.7,33.2,102.7z
		 M33.5,97.1c7.7,0,15.5,0,23.2,0c0.9,0,1-0.1,1-1c0-3.4,0-6.9,0-10.3c0-0.7-0.2-1-1-1c-15.5,0-31,0-46.5,0c-0.7,0-1,0.2-1,1
		c0,3.4,0,6.8,0,10.2c0,1,0,1.1,1.1,1.1C18.1,97.1,25.8,97.1,33.5,97.1z"/>
	<path class="fill" d="M99.7,102.7c-9.6,0-19.2,0-28.8,0c-1.1,0-1.1,0-1.1-1.1c0-1.2,0-2.4,0-3.6c0-0.7,0.3-0.9,1-0.9
		c4.3,0,8.5,0,12.8,0c13.2,0,26.3,0,39.5,0c1.1,0,1.1,0,1.1-1.1c0-3.4,0-6.7,0-10.1c0-1,0-1-1.1-1c-17.3,0-34.7,0-52,0
		c-1.3,0-1.3,0-1.3-1.3c0-1.1,0-2.1,0-3.2c0-1,0.1-1.2,1.2-1.2c7.7,0,15.4,0,23.1,0c11.5,0,22.9,0,34.4,0c1.3,0,1.4,0,1.4,1.3
		c0,7,0,13.9,0,20.9c0,1.2-0.1,1.3-1.3,1.3C118.9,102.7,109.3,102.7,99.7,102.7z"/>
	<path class="fill" d="M99.8,115.8c9.6,0,19.1,0,28.7,0c1.2,0,1.3,0.1,1.3,1.3c0,1.1,0,2.1,0,3.2c0,0.9-0.2,1.1-1.1,1.1
		c-0.1,0-0.3,0-0.4,0c-19.1,0-38.2,0-57.3,0c-1.2,0-1.2,0-1.2-1.2c0-1.2,0-2.3,0-3.5c0-0.7,0.2-0.9,0.9-0.9c4.6,0,9.1,0,13.7,0
		C89.5,115.8,94.7,115.8,99.8,115.8z"/>
	<path class="fill" d="M142.3,118.6c0,0.7,0,1.4,0,2c0,0.5-0.2,0.7-0.6,0.7c-1.4,0-2.9,0-4.3,0c-0.5,0-0.7-0.2-0.7-0.7
		c0-1.4,0-2.8,0-4.2c0-0.5,0.2-0.7,0.7-0.7c1.4,0,2.8,0,4.2,0c0.5,0,0.7,0.2,0.7,0.7C142.3,117.2,142.3,117.9,142.3,118.6z"/>
	<path class="fill" d="M3.7,118.6c0-0.7,0-1.4,0-2c0-0.5,0.2-0.8,0.7-0.7c1.4,0,2.8,0,4.2,0c0.5,0,0.7,0.2,0.7,0.7
		c0,1.4,0,2.8,0,4.2c0,0.5-0.2,0.7-0.7,0.7c-1.4,0-2.8,0-4.2,0c-0.6,0-0.8-0.2-0.7-0.8C3.7,119.9,3.7,119.2,3.7,118.6z"/>
</g>
</svg>
