<svg width="295" height="62" viewBox="0 0 295 62" fill="none" xmlns="http://www.w3.org/2000/svg">
<g filter="url(#filter0_b)">
<path fill-rule="evenodd" clip-rule="evenodd" d="M6.56167 6.56167C11.023 2.10037 17.5554 0 25.7981 0H36.0647C44.3074 0 50.8398 2.10037 55.3011 6.56167C59.7624 11.023 61.8628 17.5554 61.8628 25.7981V36.0647C61.8628 44.3074 59.7624 50.8398 55.3011 55.3011C50.8398 59.7624 44.3074 61.8628 36.0647 61.8628H25.7981C17.5554 61.8628 11.023 59.7624 6.56167 55.3011C2.10037 50.8398 0 44.3074 0 36.0647V25.7981C0 17.5554 2.10037 11.023 6.56167 6.56167Z" fill="url(#paint0_linear)"/>
</g>
<g filter="url(#filter1_i)">
<path fill-rule="evenodd" clip-rule="evenodd" d="M31 12C22.7157 12 16 18.558 16 26.6478V44C16 45.1046 16.917 46 18.0481 46H43.9519C45.083 46 46 45.1046 46 44V26.6478C46 18.558 39.2843 12 31 12Z" fill="white"/>
</g>
<path d="M31 11C22.186 11 15 17.9835 15 26.6478V44C15 45.6791 16.3872 47 18.0481 47H43.9519C45.6128 47 47 45.6791 47 44V26.6478C47 17.9835 39.814 11 31 11Z" stroke="url(#paint1_linear)" stroke-opacity="0.5" stroke-width="2"/>
<path d="M31 11C22.186 11 15 17.9835 15 26.6478V44C15 45.6791 16.3872 47 18.0481 47H43.9519C45.6128 47 47 45.6791 47 44V26.6478C47 17.9835 39.814 11 31 11Z" stroke="black" stroke-width="2"/>
<path fill-rule="evenodd" clip-rule="evenodd" d="M21 29.132C21 24.0998 25.0893 20 30.1304 20C35.1628 20 39.2609 24.0992 39.2609 29.132V29.1471L39.2455 29.6502C39.2382 29.8556 39.1542 30.2373 38.7644 30.4716C38.4379 30.6679 38.1262 30.6086 38.0515 30.5933C37.8762 30.5572 37.7497 30.4786 37.7384 30.4716C37.6811 30.4375 37.6327 30.4005 37.6208 30.3915L37.6193 30.3903C37.5988 30.3747 37.5664 30.3491 37.5395 30.3279C37.5284 30.319 37.5181 30.3109 37.51 30.3046C37.4349 30.2455 37.329 30.1645 37.1921 30.0726C36.9163 29.8874 36.519 29.6615 36.0248 29.5025C35.0833 29.1997 33.7095 29.1085 32.0168 30.2091C30.3009 31.6724 30.1082 33.2495 30.3015 34.4885C30.4027 35.1368 30.6144 35.7032 30.8035 36.1131C30.8972 36.3161 30.9836 36.4771 31.0456 36.5877C31.0696 36.6306 31.0887 36.6635 31.1061 36.6938C31.1121 36.7041 31.1178 36.714 31.1235 36.724C31.1313 36.7375 31.1486 36.7676 31.1639 36.7969L31.1645 36.798C31.1697 36.808 31.1943 36.855 31.2168 36.9144L31.2175 36.9163C31.2248 36.9353 31.2681 37.0477 31.2789 37.1955C31.2835 37.2587 31.2978 37.4916 31.16 37.7439C31.0896 37.8548 30.8958 38.0536 30.7732 38.1346C30.6476 38.1937 30.4026 38.2543 30.2886 38.2609H29.8891L29.8755 38.2605C24.9525 38.125 21 34.0877 21 29.132ZM30.1304 21.9849C26.1872 21.9849 22.9849 25.1944 22.9849 29.132C22.9849 32.578 25.4279 35.4572 28.6742 36.1304C28.5395 35.7378 28.4173 35.2872 28.3404 34.7945C28.0578 32.9832 28.4056 30.6482 30.784 28.6522L30.8274 28.6157L30.8747 28.5845C33.136 27.0895 35.1612 27.1397 36.6327 27.613C36.8159 27.672 36.9893 27.737 37.1523 27.8055C36.5276 24.4987 33.6133 21.9849 30.1304 21.9849ZM38.819 28.809C38.8252 28.8136 38.8266 28.8148 38.8217 28.8111L38.819 28.809Z" fill="black"/>
<path fill-rule="evenodd" clip-rule="evenodd" d="M40.6785 35.6123C39.578 38.9545 35.9745 40.7774 32.632 39.6814C29.2817 38.5829 27.4673 34.9781 28.5681 31.6347C29.6686 28.2926 33.267 26.4679 36.6146 27.5656C39.9592 28.6622 41.7801 32.2666 40.6785 35.6123ZM38.8174 34.9987C38.0551 37.3137 35.5573 38.5772 33.2422 37.8181C30.9229 37.0576 29.667 34.5633 30.4293 32.2483C31.1918 29.9325 33.6851 28.6685 36.0044 29.429C38.3196 30.1881 39.5799 32.6829 38.8174 34.9987Z" fill="black"/>
<path d="M84 47.5V15.3H92.25L101.33 33.15L110.358 15.3H118.556V47.5H110.203V29L103.613 42H98.9952L92.3537 29V47.5H84Z" fill="black"/>
<path d="M124.17 20.05V14H133.25V20.05H124.17ZM124.844 47.5V29.75H121.212L121.939 23.8H133.198V47.5H124.844Z" fill="black"/>
<path d="M138.521 47.5V23.8H146.304L146.564 25.85C147.567 25.1833 148.83 24.6 150.352 24.1C151.874 23.5667 153.499 23.3 155.229 23.3C158.411 23.3 160.729 24.0333 162.182 25.5C163.635 26.9667 164.361 29.2333 164.361 32.3V47.5H156.007V32.95C156.007 31.6167 155.713 30.6667 155.125 30.1C154.537 29.5333 153.482 29.25 151.96 29.25C151.061 29.25 150.144 29.45 149.21 29.85C148.276 30.25 147.498 30.75 146.875 31.35V47.5H138.521Z" fill="black"/>
<path d="M179.498 48C176.454 48 174.205 47.25 172.752 45.75C171.334 44.25 170.625 42.1833 170.625 39.55V29.9H167.304V23.8H170.625V18.85L178.979 16.7V23.8H184.946L184.583 29.9H178.979V39C178.979 40.1333 179.273 40.9333 179.861 41.4C180.449 41.8333 181.331 42.05 182.507 42.05C183.51 42.05 184.531 41.8833 185.568 41.55V47C183.943 47.6667 181.919 48 179.498 48Z" fill="black"/>
<path d="M205.442 48C199.665 48 195.272 46.6 192.263 43.8C189.254 40.9667 187.749 36.9833 187.749 31.85C187.749 26.4833 189.288 22.3 192.367 19.3C195.445 16.3 199.977 14.8 205.961 14.8C208.002 14.8 209.835 14.9167 211.461 15.15C213.121 15.3833 214.695 15.7333 216.183 16.2V23.1C214.695 22.5667 213.139 22.2 211.513 22C209.922 21.8 208.279 21.7 206.584 21.7C202.986 21.7 200.357 22.5333 198.697 24.2C197.071 25.8333 196.258 28.3833 196.258 31.85C196.258 35.0167 197.037 37.3667 198.593 38.9C200.15 40.4 202.45 41.15 205.494 41.15C207.5 41.15 209.368 40.8833 211.098 40.35V34.25H203.886V29.2H218.102V45.15C216.926 45.8833 215.283 46.55 213.173 47.15C211.098 47.7167 208.521 48 205.442 48Z" fill="black"/>
<path d="M230.06 48C228.504 48 227.051 47.7333 225.702 47.2C224.387 46.6667 223.332 45.85 222.537 44.75C221.741 43.6167 221.343 42.2167 221.343 40.55C221.343 38.1167 222.191 36.2167 223.886 34.85C225.615 33.45 228.192 32.75 231.617 32.75H238.466V32.2C238.466 31 238.051 30.15 237.221 29.65C236.39 29.1167 234.834 28.85 232.551 28.85C229.749 28.85 226.999 29.2667 224.301 30.1V24.9C225.512 24.4333 226.982 24.05 228.711 23.75C230.475 23.45 232.326 23.3 234.263 23.3C238.068 23.3 241.043 24.05 243.188 25.55C245.367 27.05 246.456 29.4333 246.456 32.7V47.5H239.14L238.725 45.5C237.826 46.3 236.667 46.9167 235.249 47.35C233.865 47.7833 232.136 48 230.06 48ZM232.707 43.05C234.021 43.05 235.162 42.8333 236.131 42.4C237.1 41.9667 237.878 41.4167 238.466 40.75V37.4H232.551C230.095 37.4 228.867 38.35 228.867 40.25C228.867 41.1167 229.178 41.8 229.801 42.3C230.424 42.8 231.392 43.05 232.707 43.05Z" fill="black"/>
<path d="M261.584 48C258.54 48 256.291 47.25 254.839 45.75C253.42 44.25 252.711 42.1833 252.711 39.55V29.9H249.39V23.8H252.711V18.85L261.065 16.7V23.8H267.032L266.669 29.9H261.065V39C261.065 40.1333 261.359 40.9333 261.947 41.4C262.535 41.8333 263.417 42.05 264.593 42.05C265.596 42.05 266.617 41.8833 267.655 41.55V47C266.029 47.6667 264.005 48 261.584 48Z" fill="black"/>
<path d="M284.052 48C279.763 48 276.321 46.9833 273.727 44.95C271.132 42.8833 269.835 39.7833 269.835 35.65C269.835 31.8833 270.907 28.8833 273.052 26.65C275.197 24.4167 278.414 23.3 282.703 23.3C286.612 23.3 289.638 24.2667 291.783 26.2C293.928 28.1333 295 30.7333 295 34V38.25H277.566C277.947 39.8167 278.829 40.9167 280.212 41.55C281.631 42.15 283.55 42.45 285.972 42.45C287.321 42.45 288.687 42.3333 290.071 42.1C291.489 41.8667 292.665 41.5667 293.599 41.2V46.45C292.423 46.9833 291.022 47.3667 289.396 47.6C287.77 47.8667 285.989 48 284.052 48ZM277.566 33.6H287.736V32.55C287.736 31.3833 287.373 30.4667 286.646 29.8C285.92 29.1 284.692 28.75 282.962 28.75C280.956 28.75 279.555 29.15 278.759 29.95C277.964 30.7167 277.566 31.9333 277.566 33.6Z" fill="black"/>
<defs>
<filter id="filter0_b" x="-100" y="-100" width="261.863" height="261.863" filterUnits="userSpaceOnUse" color-interpolation-filters="sRGB">
<feFlood flood-opacity="0" result="BackgroundImageFix"/>
<feGaussianBlur in="BackgroundImage" stdDeviation="50"/>
<feComposite in2="SourceAlpha" operator="in" result="effect1_backgroundBlur"/>
<feBlend mode="normal" in="SourceGraphic" in2="effect1_backgroundBlur" result="shape"/>
</filter>
<filter id="filter1_i" x="14" y="10" width="34" height="42" filterUnits="userSpaceOnUse" color-interpolation-filters="sRGB">
<feFlood flood-opacity="0" result="BackgroundImageFix"/>
<feBlend mode="normal" in="SourceGraphic" in2="BackgroundImageFix" result="shape"/>
<feColorMatrix in="SourceAlpha" type="matrix" values="0 0 0 0 0 0 0 0 0 0 0 0 0 0 0 0 0 0 127 0" result="hardAlpha"/>
<feOffset dy="4"/>
<feGaussianBlur stdDeviation="2"/>
<feComposite in2="hardAlpha" operator="arithmetic" k2="-1" k3="1"/>
<feColorMatrix type="matrix" values="0 0 0 0 0 0 0 0 0 0 0 0 0 0 0 0 0 0 0.25 0"/>
<feBlend mode="normal" in2="shape" result="effect1_innerShadow"/>
</filter>
<linearGradient id="paint0_linear" x1="1.76471" y1="12.143" x2="43.2014" y2="61.4136" gradientUnits="userSpaceOnUse">
<stop stop-color="#45E6FF"/>
<stop offset="0.572917" stop-color="#0066FF"/>
<stop offset="1" stop-color="#EF7EFF"/>
</linearGradient>
<linearGradient id="paint1_linear" x1="21.041" y1="16.3099" x2="43.6366" y2="45.8666" gradientUnits="userSpaceOnUse">
<stop stop-color="#5B23F5"/>
<stop offset="0.53125" stop-color="#2FE1FC"/>
<stop offset="1" stop-color="#C421EB"/>
</linearGradient>
</defs>
</svg>
