<?xml version="1.0" encoding="iso-8859-1"?>
<!-- Generator: Adobe Illustrator 18.0.0, SVG Export Plug-In . SVG Version: 6.00 Build 0)  -->
<!DOCTYPE svg PUBLIC "-//W3C//DTD SVG 1.1//EN" "http://www.w3.org/Graphics/SVG/1.1/DTD/svg11.dtd">
<svg version="1.1" id="Capa_1" xmlns="http://www.w3.org/2000/svg" xmlns:xlink="http://www.w3.org/1999/xlink" x="0px" y="0px"
	 viewBox="0 0 400.98 400.98" style="enable-background:new 0 0 400.98 400.98;" xml:space="preserve">
<g>
	<path d="M356.526,0H44.454c-2.209,0-4,1.791-4,4v392.98c0,2.209,1.791,4,4,4h312.072c2.209,0,4-1.791,4-4V4
		C360.526,1.791,358.735,0,356.526,0z M352.526,392.98H48.454V8h304.072V392.98z"/>
	<path d="M189.11,128.898c2.209,0,4-1.791,4-4v-11.822l7.326,0.318c2.215,0.105,4.074-1.615,4.17-3.822
		c0.096-2.207-1.615-4.074-3.822-4.17l-11.5-0.5c-1.104-0.053-2.152,0.353-2.94,1.106c-0.788,0.755-1.233,1.799-1.233,2.89v16
		C185.11,127.107,186.901,128.898,189.11,128.898z"/>
	<path d="M186.175,304.806c-1.707-1.4-4.229-1.152-5.629,0.557c-1.401,1.708-1.151,4.229,0.557,5.629l25,20.5
		c0.744,0.61,1.642,0.907,2.534,0.907c1.156,0,2.305-0.499,3.095-1.464c1.401-1.708,1.151-4.229-0.557-5.629L186.175,304.806z"/>
	<path d="M266.781,219.901c-24.928-0.923-34.529,18.514-36.09,28.849l-5.5,33.5c-0.357,2.181,1.119,4.237,3.299,4.596
		c0.22,0.036,0.438,0.054,0.653,0.054c1.924,0,3.62-1.393,3.942-3.353l5.508-33.552c0.142-0.938,3.788-22.949,27.902-22.1
		c2.187,0.078,4.061-1.646,4.14-3.854C270.715,221.833,268.989,219.98,266.781,219.901z"/>
	<path d="M79.841,357.983c0,2.209,1.791,4,4,4h233.298c2.209,0,4-1.791,4-4V42.998c0-2.209-1.791-4-4-4H83.841c-2.209,0-4,1.791-4,4
		V357.983z M157.678,164.112c-2.179,6.265-1.971,15.104-1.592,20.29c-9.212,1.709-29.956,10.015-39.149,49.738
		c-2.809,3.509-6.87,7.253-11.154,11.202c-6.053,5.578-12.612,11.629-17.941,18.858V123.898h59.658
		C147.472,138.216,150.345,156.648,157.678,164.112z M313.139,277.223c-7.769-28.806-21.02-65.514-39.219-91.612
		c-5.472-7.847-17.677-18.357-24.234-24.004l-0.32-0.276c-1.393-9.072-3.325-23.793-5.051-37.432h68.825V277.223z M186.51,288.378
		c-4.86-2.669-9.567-4.789-13.895-6.456c0.021-0.948-0.037-1.96,0.015-2.763c1.773-27.186,17.932-50.285,48.026-68.659
		c22.865-13.959,45.565-19.749,45.792-19.807c0.337-0.085,0.719-0.148,1.117-0.203c1.225,1.767,2.43,3.589,3.613,5.467
		c-5.699,1.136-21.659,5.015-38.364,15.351c-18.066,11.177-40.15,32.176-45.482,69.448
		C187.063,282.64,186.542,287.719,186.51,288.378z M201.784,211.414c-19.526,1.746-35.722-7.159-41.955-14.626
		c1.944-7.596,17.895-19.791,29.319-26.431c1.33-0.773,2.1-2.242,1.978-3.776l-0.679-8.537c0.61,0.052,1.222,0.09,1.837,0.104
		l1.073,0.02c7.546,0.16,14.875-2.441,20.614-7.361l0.039-0.034l1.859,53.288c-3.663,2.259-7.145,4.6-10.432,7.023
		C203.836,211.204,202.454,211.355,201.784,211.414z M173.64,106.398c-0.01,0-0.02,0-0.028,0l-5.03,0.035l-1.301-16.401
		c0.033-0.073,0.074-0.145,0.102-0.22c2.52-2.361,8.513-7.302,15.134-7.932c12.202-1.164,27.204,0.579,29.632,15.401l1.505,43.262
		l-4.889,4.188c-4.238,3.634-9.627,5.562-15.241,5.438l-1.076-0.02c-6.056-0.134-11.904-2.752-16.043-7.178
		c-1.731-1.858-3.134-3.987-4.164-6.321c-1.031-2.348-1.651-4.813-1.845-7.338l-1.18-14.884l4.45-0.03
		c2.209-0.016,3.988-1.818,3.973-4.027C177.623,108.171,175.836,106.398,173.64,106.398z M241.688,164.023
		c0.148,0.933,0.62,1.783,1.335,2.401l1.443,1.245c4.205,3.621,11.672,10.057,17.357,15.999c-6.019,1.737-21.295,6.638-38.107,15.83
		l-1.998-57.277c-0.001-0.022-0.002-0.045-0.003-0.067l-1.578-45.394c-0.006-0.157-0.021-0.314-0.045-0.47
		c-2.508-16.3-16.481-24.449-38.332-22.374c-3.253,0.31-6.309,1.301-9.043,2.583c4.222-5.443,11.493-10.601,23.922-10.601
		c9.561,0,17.989,3.821,25.051,11.357c6.632,7.076,10.795,16.187,12.038,26.347C235.76,120.207,239.495,150.137,241.688,164.023z
		 M160.157,101.392l2.264,28.542c0.262,3.416,1.101,6.759,2.499,9.941c1.395,3.161,3.29,6.038,5.638,8.558
		c3.257,3.483,7.297,6.131,11.719,7.779l0.679,8.541c-2.91,1.8-8.334,5.302-13.847,9.624c-1.918,1.504-3.66,2.966-5.257,4.395
		c-0.057-5.425,0.455-11.068,2.152-13.709c0.614-0.955,0.794-2.127,0.493-3.222c-0.301-1.096-1.053-2.011-2.068-2.52
		c-6.949-3.475-11.06-33.719-7.891-47.526C157.445,107.841,158.767,104.339,160.157,101.392z M87.841,353.983v-73.554
		c4.655-11.943,14.578-21.108,23.362-29.204c3.352-3.088,6.562-6.058,9.304-9.013c4.097,0.222,14.844,1.531,17.797,9.142
		c1.539,7.251,4.484,13.551,8.781,18.629c0.791,0.934,1.92,1.416,3.056,1.416c0.913,0,1.83-0.311,2.582-0.946
		c1.686-1.427,1.896-3.951,0.47-5.638c-14.811-17.503-4.872-47.32-4.77-47.62c0.716-2.088-0.395-4.361-2.483-5.079
		c-2.098-0.719-4.366,0.394-5.084,2.482c-0.119,0.348-2.932,8.63-3.645,19.476c-0.1,1.521-0.142,3.012-0.149,4.481
		c-4.003-2.326-8.474-3.429-12.013-3.944c6.728-27.707,19.178-37.422,27.345-40.822c-0.45,1.355-0.703,2.674-0.752,3.957
		c-0.034,0.878,0.223,1.742,0.729,2.46c3.762,5.33,10.583,10.447,18.714,14.04c5.519,2.438,13.77,5.086,23.936,5.364
		c-18.537,16.886-28.934,36.95-30.373,59.028c-0.011,0.173-0.03,0.351-0.052,0.53c-8.261-2.499-13.93-3.181-14.516-3.245
		c-0.873-0.097-1.77,0.1-2.527,0.563c-4.359,2.664-7.294,6.821-8.487,12.021c-1.098,4.788-0.602,10.146,1.263,14.772
		c-3.824,1.758-8.162,2.658-11.59,3.123c-8.306-14.414,0.195-21.472,1.265-22.277c1.77-1.296,2.166-3.779,0.882-5.563
		c-1.29-1.793-3.791-2.198-5.583-0.909c-5.126,3.69-11.834,13.856-5.691,28.353c-4.357-1.71-11.139-6.511-9.987-19.76
		c0.5-5.749,2.451-10.003,5.801-12.642c5.568-4.39,13.495-3.27,13.602-3.252c2.165,0.329,4.216-1.148,4.563-3.324
		c0.348-2.183-1.14-4.232-3.321-4.579c-0.463-0.075-11.361-1.717-19.724,4.815c-5.197,4.06-8.188,10.213-8.891,18.288
		c-2.313,26.605,20.338,29.301,20.566,29.324c0.14,0.015,15.744-0.054,25.638-6.649c0.173-0.115,4.081-2.461,4.081-2.461
		c0.676,0.877,1.579,2.007,2.648,3.281l-15.809,8.311c-1.315,0.691-2.139,2.055-2.139,3.54v12c0,2.209,1.791,4,4,4s4-1.791,4-4
		v-9.584l15.513-8.156c2.063,2.09,4.421,4.279,7.026,6.42l-13.658,3.98c-1.19,0.347-2.15,1.225-2.604,2.378l-5.5,14
		c-0.809,2.057,0.204,4.378,2.26,5.185c0.48,0.19,0.976,0.278,1.462,0.278c1.597,0,3.105-0.963,3.724-2.538l4.782-12.172
		l17.802-5.187c2.902,1.778,5.992,3.373,9.258,4.629c0.472,0.182,0.957,0.268,1.434,0.268c1.607,0,3.123-0.976,3.734-2.565
		c0.793-2.062-0.235-4.376-2.298-5.169c-18.041-6.94-30.005-24.335-30.121-24.506c-0.977-1.443-2.773-2.089-4.443-1.599
		l-5.309,1.561c-1.194-3.085-1.544-6.743-0.837-9.827c0.601-2.618,1.862-4.702,3.758-6.213c6.766,1.105,36.187,7.192,58.017,31.961
		c0.791,0.897,1.894,1.355,3.003,1.355c0.939,0,1.883-0.329,2.643-0.999c1.657-1.461,1.817-3.988,0.356-5.646
		c-1.383-1.569-2.797-3.053-4.225-4.485l29.832-5.415c0.951-0.108,12.523-1.216,19.742,8.01c0.789,1.009,1.965,1.535,3.153,1.535
		c0.862,0,1.73-0.277,2.462-0.85c1.74-1.362,2.047-3.876,0.685-5.615c-10.299-13.159-26.51-11.094-27.197-10.998
		c-0.056,0.008-0.111,0.017-0.168,0.027l-35.968,6.528c-2.82-2.318-5.67-4.416-8.513-6.308c0.039-2.114,0.06-4.626,0.179-5.918
		c0.193-2.091,0.44-4.148,0.743-6.172c4.053-27.116,17.965-48.234,41.416-62.833c18.973-11.81,37.448-14.737,37.76-14.785
		c0.229-0.034,0.607-0.082,1.037-0.142c22.358,39.514,36.283,95.792,37.56,114.217v36.432H87.841z M313.139,46.998v68.9h-69.83
		c-0.61-4.89-1.171-9.437-1.639-13.268c-1.451-11.856-6.342-22.522-14.142-30.846c-8.635-9.215-19.027-13.887-30.889-13.887
		c-25.795,0-35.689,19.164-37.4,29.584c-2.582,3.362-7.928,11.331-10.498,22.521c-0.379,1.65-0.675,3.653-0.885,5.895H87.841v-68.9
		H313.139z"/>
</g>
<g>
</g>
<g>
</g>
<g>
</g>
<g>
</g>
<g>
</g>
<g>
</g>
<g>
</g>
<g>
</g>
<g>
</g>
<g>
</g>
<g>
</g>
<g>
</g>
<g>
</g>
<g>
</g>
<g>
</g>
</svg>
