<svg width="674" height="126" viewBox="0 0 674 126" fill="none" xmlns="http://www.w3.org/2000/svg">
<path d="M36.214 58.7257V68.9029H21.1859C15.6023 68.9029 11.0681 64.3687 11.0681 58.7851V31.3623H0V21.3831H11.0483V7.1272H22.4531V21.3831H36.214V31.3623H22.4531V58.7257H36.214Z" fill="black"/>
<path d="M40.9861 45.1444C40.9861 30.6112 51.3414 20.4341 65.2212 20.4341C79.1009 20.4341 89.4562 30.6112 89.4562 45.1444C89.4562 59.6775 79.1009 69.8546 65.2212 69.8546C51.3414 69.8546 40.9861 59.6973 40.9861 45.1444ZM78.0515 45.1444C78.0515 36.5908 72.5471 30.8884 65.2212 30.8884C57.8952 30.8884 52.3908 36.5908 52.3908 45.1444C52.3908 53.6979 57.8952 59.4003 65.2212 59.4003C72.5471 59.4003 78.0515 53.6979 78.0515 45.1444Z" fill="black"/>
<path d="M108.86 43.9162V68.9036H97.4556V0H108.86V42.1144L127.294 21.4037H142.302L121.413 42.9658L143.55 68.9036H129.294L108.86 43.9162Z" fill="black"/>
<path d="M189.94 48.9459H154.221C155.449 55.8759 160.023 59.8755 167.052 59.8755C172.081 59.8755 175.031 57.9747 176.556 54.6483H188.911C186.06 64.5285 177.783 69.8546 166.577 69.8546C152.994 69.8546 143.015 59.6775 143.015 45.1444C143.015 30.6112 152.994 20.4341 166.577 20.4341C180.159 20.4341 190.158 30.6112 190.158 45.1444C190.138 46.4709 190.039 47.7183 189.94 48.9459ZM154.301 40.8676H178.833C177.605 34.2148 173.229 30.4132 166.577 30.4132C159.924 30.4132 155.548 34.2148 154.301 40.8676Z" fill="black"/>
<path d="M209.542 68.9042H198.137V21.3845H209.542V28.2352C212.492 23.2061 217.343 20.4341 223.224 20.4341C233.302 20.4341 240.905 27.0869 240.905 40.4914V68.9042H229.5V42.7684C229.5 34.789 225.699 30.4132 219.521 30.4132C213.344 30.4132 209.542 34.789 209.542 42.7684V68.9042Z" fill="black"/>
<path d="M309.809 58.7257V68.9029H294.781C289.197 68.9029 284.663 64.3687 284.663 58.7851V31.3623H273.615V21.3831H284.663V7.1272H296.068V21.3831H309.829V31.3623H296.068V58.7257H309.809Z" fill="black"/>
<path d="M361.744 48.9459H326.005C327.233 55.8759 331.806 59.8755 338.835 59.8755C343.865 59.8755 346.815 57.9747 348.339 54.6483H360.694C357.843 64.5285 349.567 69.8546 338.36 69.8546C324.777 69.8546 314.798 59.6775 314.798 45.1444C314.798 30.6112 324.777 20.4341 338.36 20.4341C351.943 20.4341 361.942 30.6112 361.942 45.1444C361.942 46.4709 361.843 47.7183 361.744 48.9459ZM326.104 40.8676H350.636C349.409 34.2148 345.033 30.4132 338.38 30.4132C331.707 30.4132 327.332 34.2148 326.104 40.8676Z" fill="black"/>
<path d="M417.659 68.9042H406.254V21.3845H417.659V27.562C420.411 23.0081 424.985 20.4341 430.39 20.4341C436.845 20.4341 442.27 23.3843 445.022 29.1856C447.873 23.5823 453.298 20.4341 459.852 20.4341C469.455 20.4341 476.583 26.8096 476.583 39.541V68.9042H465.178V41.818C465.178 34.4128 461.753 30.4132 456.15 30.4132C450.546 30.4132 447.121 34.4128 447.121 41.818V68.9042H435.716V41.818C435.716 34.4128 432.291 30.4132 426.687 30.4132C421.084 30.4132 417.659 34.4128 417.659 41.818V68.9042Z" fill="black"/>
<path d="M486.008 7.12796C486.008 3.04918 489.057 0 493.136 0C497.314 0 500.264 3.04918 500.264 7.12796C500.264 11.1275 497.314 14.2559 493.136 14.2559C489.057 14.2559 486.008 11.1275 486.008 7.12796Z" fill="black"/>
<path d="M498.838 21.3835H487.433V68.9033H498.838V21.3835Z" fill="black"/>
<path d="M521.569 68.9042H510.165V21.3845H521.569V28.2352C524.519 23.2061 529.37 20.4341 535.251 20.4341C545.329 20.4341 552.932 27.0869 552.932 40.4914V68.9042H541.528V42.7684C541.528 34.789 537.726 30.4132 531.548 30.4132C525.371 30.4132 521.569 34.789 521.569 42.7684V68.9042Z" fill="black"/>
<path d="M592.492 61.8753C589.443 67.4786 583.938 69.8546 577.384 69.8546C569.207 69.8546 561.426 65.7759 561.426 56.1729C561.426 35.7394 592.314 44.8672 592.314 35.3632C592.314 31.6606 588.512 29.4628 583.562 29.4628C578.335 29.4628 574.731 32.215 574.731 37.5412H562.851C562.851 25.1861 572.93 20.4341 583.562 20.4341C594.016 20.4341 603.718 24.7109 603.718 35.8384V68.9042H592.492V61.8753ZM579.741 60.3507C586.393 60.3507 592.472 56.5491 592.472 49.3221V47.1441C584.869 50.2725 573.088 49.3221 573.088 55.4205C573.088 58.7469 575.939 60.3507 579.741 60.3507Z" fill="black"/>
<path d="M614.074 68.9036V0H625.479V68.9036H614.074Z" fill="black"/>
<path d="M394.81 32.4119H399.681V21.3042H395.899C390.078 21.3042 384.475 24.1158 381.406 29.0658L381.327 29.1846V21.4824H369.922V69.0022H381.327V44.7671C381.327 36.7877 386.277 32.4119 394.731 32.4119C394.771 32.4119 394.791 32.4119 394.81 32.4119Z" fill="black"/>
<path d="M635.854 68.9045V58.7075H673.87V68.9045H635.854Z" fill="#00CF9D"/>
<path d="M256.934 118H260.246V106.444H272.846V103.816H260.246V94.708H274.304V92.08H256.934V118ZM293.66 99.658H290.492V109.9C290.492 114.04 287.846 115.93 284.84 115.93C282.194 115.93 280.358 114.58 280.358 111.502V99.658H277.19V111.826C277.19 116.254 280.052 118.414 284.12 118.414C288.026 118.414 289.592 116.542 290.222 115.426H290.582V118H293.66V99.658ZM298.868 118H302.036V107.758C302.036 103.618 304.682 101.728 307.688 101.728C310.352 101.728 312.188 103.078 312.188 106.156V118H315.356V105.832C315.356 101.422 312.494 99.244 308.426 99.244C304.52 99.244 302.954 101.116 302.306 102.25H301.946V99.658H298.868V118ZM337.267 92.08H334.099V102.142H333.739C332.929 100.792 331.165 99.244 327.691 99.244C322.921 99.244 319.285 102.484 319.285 108.838C319.285 115.174 322.921 118.414 327.691 118.414C331.165 118.414 332.983 116.866 333.829 115.39H334.189V118H337.267V92.08ZM334.225 108.838C334.225 113.392 331.849 115.912 328.339 115.912C324.847 115.912 322.471 113.392 322.471 108.838C322.471 104.266 324.847 101.746 328.339 101.746C331.849 101.746 334.225 104.266 334.225 108.838ZM345.197 105.31C345.449 102.79 347.213 101.584 350.201 101.584C353.189 101.584 354.737 102.79 354.737 105.742V106.57L347.861 107.434C344.153 107.902 341.399 109.396 341.399 112.96C341.399 116.416 344.135 118.396 348.023 118.396C351.947 118.396 353.675 116.848 354.467 115.372H354.827V118H357.815V105.922C357.815 101.35 354.989 99.226 350.291 99.226C345.557 99.226 342.623 101.35 342.245 104.77V105.31H345.197ZM344.531 112.888C344.531 110.89 346.043 110.026 348.455 109.702L354.737 108.892V109.99C354.737 114.148 351.965 116.02 348.635 116.02C346.133 116.02 344.531 114.868 344.531 112.888ZM362.887 118H366.055V107.002C366.055 103.456 368.125 101.728 370.951 101.728C373.543 101.728 374.785 103.204 374.785 105.58V118H377.953V107.002C377.953 103.456 380.005 101.728 382.849 101.728C385.423 101.728 386.683 103.204 386.683 105.58V118H389.851V105.436C389.851 101.206 387.205 99.244 383.677 99.244C380.095 99.244 378.529 100.756 377.611 102.376H377.251C376.513 100.81 375.019 99.244 371.779 99.244C368.431 99.244 367.099 100.612 366.325 101.818H365.965V99.658H362.887V118ZM393.782 108.82C393.782 115.066 397.31 118.432 402.71 118.432C408.182 118.432 410.324 115.048 410.756 112.798V112.258H407.912C407.624 114.022 406.058 116.038 402.674 116.038C399.11 116.038 396.914 113.536 396.842 109.504H411.134V108.028C411.134 102.628 408.11 99.226 402.674 99.226C397.292 99.226 393.782 102.592 393.782 108.82ZM396.896 107.182C397.148 103.87 399.164 101.62 402.656 101.62C406.22 101.62 408.074 103.852 408.11 107.182H396.896ZM415.27 118H418.438V107.758C418.438 103.618 421.084 101.728 424.09 101.728C426.754 101.728 428.59 103.078 428.59 106.156V118H431.758V105.832C431.758 101.422 428.896 99.244 424.828 99.244C420.922 99.244 419.356 101.116 418.708 102.25H418.348V99.658H415.27V118ZM434.314 102.034H438.796V113.518C438.796 116.506 440.506 118 443.512 118H447.4V115.552H442.252L441.964 115.264V102.034H447.454V99.658H441.964V94.618H438.796V99.658H434.314V102.034ZM453.83 105.31C454.082 102.79 455.846 101.584 458.834 101.584C461.822 101.584 463.37 102.79 463.37 105.742V106.57L456.494 107.434C452.786 107.902 450.032 109.396 450.032 112.96C450.032 116.416 452.768 118.396 456.656 118.396C460.58 118.396 462.308 116.848 463.1 115.372H463.46V118H466.448V105.922C466.448 101.35 463.622 99.226 458.924 99.226C454.19 99.226 451.256 101.35 450.878 104.77V105.31H453.83ZM453.164 112.888C453.164 110.89 454.676 110.026 457.088 109.702L463.37 108.892V109.99C463.37 114.148 460.598 116.02 457.268 116.02C454.766 116.02 453.164 114.868 453.164 112.888ZM474.688 92.08H471.52V118H474.688V92.08ZM479.005 104.554C479.005 107.74 481.309 109.144 484.675 109.702L487.861 110.224C490.201 110.602 491.623 111.25 491.623 113.032C491.623 114.832 490.093 116.074 487.033 116.074C483.991 116.074 481.795 114.85 481.579 112.258H478.645V112.798C478.969 116.146 482.047 118.414 487.051 118.414C492.073 118.414 494.701 116.128 494.701 112.87C494.701 109.594 492.199 108.334 488.581 107.74L485.395 107.2C483.469 106.894 482.083 106.21 482.083 104.446C482.083 102.664 483.703 101.584 486.564 101.584C489.445 101.584 491.389 102.646 491.533 105.22H494.467V104.68C494.071 101.296 491.263 99.244 486.529 99.244C481.831 99.244 479.005 101.296 479.005 104.554ZM510.339 102.034V118H513.507V102.034H518.781V99.658H513.507V94.708L513.795 94.42H519.447V92.08H515.055C512.049 92.08 510.339 93.574 510.339 96.562V99.658H505.857V102.034H510.339ZM520.414 108.838C520.414 115.012 524.104 118.432 529.576 118.432C535.066 118.432 538.756 115.012 538.756 108.838C538.756 102.646 535.066 99.226 529.576 99.226C524.104 99.226 520.414 102.646 520.414 108.838ZM523.618 108.838C523.618 104.158 526.012 101.692 529.576 101.692C533.158 101.692 535.534 104.158 535.534 108.838C535.534 113.5 533.158 115.966 529.576 115.966C526.012 115.966 523.618 113.5 523.618 108.838ZM542.852 118H546.02V107.848C546.02 104.104 547.37 102.178 550.808 102.178H553.292V99.586H550.808C548.054 99.586 546.884 100.612 546.29 102.016H545.93V99.658H542.852V118ZM564.641 108.838C564.641 114.994 568.259 118.432 573.767 118.432C579.257 118.432 581.669 115.102 581.957 112.114V111.574H579.005C578.771 113.698 577.457 115.966 573.839 115.966C570.167 115.966 567.845 113.482 567.845 108.838C567.845 104.194 570.185 101.692 573.839 101.692C577.403 101.692 578.789 104.014 578.951 105.976H581.903V105.436C581.669 102.556 579.203 99.226 573.767 99.226C568.277 99.226 564.641 102.664 564.641 108.838ZM585.919 118H589.087V107.848C589.087 104.104 590.437 102.178 593.875 102.178H596.359V99.586H593.875C591.121 99.586 589.951 100.612 589.357 102.016H588.997V99.658H585.919V118ZM598.161 100.198L605.541 118.036L602.715 124.66V125.2H605.865L616.215 100.198V99.658H613.083L607.413 114.112H607.053L601.383 99.658H598.161V100.198ZM619.493 125.2H622.661V115.516H623.021C623.831 116.866 625.595 118.414 629.069 118.414C633.839 118.414 637.493 115.174 637.493 108.838C637.493 102.484 633.839 99.244 629.069 99.244C625.595 99.244 623.777 100.792 622.931 102.268H622.571V99.658H619.493V125.2ZM622.553 108.838C622.553 104.266 624.929 101.746 628.421 101.746C631.931 101.746 634.307 104.266 634.307 108.838C634.307 113.392 631.931 115.912 628.421 115.912C624.929 115.912 622.553 113.392 622.553 108.838ZM639.099 102.034H643.581V113.518C643.581 116.506 645.291 118 648.297 118H652.185V115.552H647.037L646.749 115.264V102.034H652.239V99.658H646.749V94.618H643.581V99.658H639.099V102.034ZM654.641 108.838C654.641 115.012 658.331 118.432 663.803 118.432C669.293 118.432 672.983 115.012 672.983 108.838C672.983 102.646 669.293 99.226 663.803 99.226C658.331 99.226 654.641 102.646 654.641 108.838ZM657.845 108.838C657.845 104.158 660.239 101.692 663.803 101.692C667.385 101.692 669.761 104.158 669.761 108.838C669.761 113.5 667.385 115.966 663.803 115.966C660.239 115.966 657.845 113.5 657.845 108.838Z" fill="#595959"/>
</svg>
